<svg width="24" height="24" viewBox="0 0 24 24" fill="none" xmlns="http://www.w3.org/2000/svg">
<g clip-path="url(#clip0_74_914)">
<path d="M1.957 4.13301V11.438C1.98503 13.8517 2.75416 16.1984 4.16024 18.1604C5.56631 20.1224 7.54139 21.6048 9.818 22.407L10.89 22.803C11.6066 23.0662 12.3934 23.0662 13.11 22.803L14.182 22.407C16.4584 21.6047 18.4333 20.1221 19.8392 18.1601C21.2451 16.1982 22.014 13.8515 22.042 11.438V4.13301C22.0404 3.84631 21.9551 3.56633 21.7964 3.32753C21.6377 3.08873 21.4127 2.90154 21.149 2.78901C18.2518 1.5798 15.1393 0.971179 12 1.00001C8.86037 0.971044 5.74752 1.57966 2.85 2.78901C2.5863 2.90154 2.36127 3.08873 2.20261 3.32753C2.04394 3.56633 1.95857 3.84631 1.957 4.13301Z" fill="#155DFC"/>
</g>
<path d="M12 1.00101C8.86044 0.971725 5.74759 1.58001 2.85 2.78901C2.5863 2.90154 2.36127 3.08873 2.20261 3.32753C2.04394 3.56633 1.95857 3.84631 1.957 4.13301V11.438C1.98503 13.8517 2.75416 16.1984 4.16024 18.1604C5.56631 20.1224 7.54139 21.6048 9.818 22.407L10.89 22.802C11.2454 22.9332 11.6212 23.0002 12 23V1.00101Z" fill="#155DFC" fill-opacity="0.3"/>
<path d="M1.957 4.13301V11.438C1.98503 13.8517 2.75416 16.1984 4.16024 18.1604C5.56631 20.1224 7.54139 21.6048 9.818 22.407L10.89 22.803C11.6066 23.0662 12.3934 23.0662 13.11 22.803L14.182 22.407C16.4584 21.6047 18.4333 20.1221 19.8392 18.1601C21.2451 16.1982 22.014 13.8515 22.042 11.438V4.13301C22.0404 3.84631 21.9551 3.56633 21.7964 3.32753C21.6377 3.08873 21.4127 2.90154 21.149 2.78901C18.2518 1.5798 15.1393 0.971179 12 1.00001C8.86037 0.971044 5.74752 1.57966 2.85 2.78901C2.5863 2.90154 2.36127 3.08873 2.20261 3.32753C2.04394 3.56633 1.95857 3.84631 1.957 4.13301Z" stroke="#191919" stroke-width="0.5" stroke-linecap="round" stroke-linejoin="round"/>
<path d="M16.782 8.92001C16.782 7.12701 15.622 5.71301 14.192 5.71301C13.7532 5.71288 13.3216 5.82466 12.9381 6.03778C12.5545 6.25091 12.2316 6.55834 12 6.93101C11.7678 6.55928 11.4451 6.25255 11.0621 6.03952C10.6791 5.8265 10.2483 5.71416 9.80999 5.71301C8.37899 5.71301 7.21899 7.12701 7.21899 8.92001C7.17316 9.6436 7.27517 10.3689 7.51878 11.0518C7.7624 11.7347 8.14252 12.3608 8.63599 12.892C8.21959 13.9078 8.00886 14.9962 8.01599 16.094C8.01435 16.6902 8.074 17.285 8.19399 17.869C8.21808 17.987 8.2824 18.093 8.37597 18.1689C8.46953 18.2448 8.58653 18.2858 8.70699 18.285C8.84151 18.2862 8.97164 18.2372 9.07189 18.1474C9.17214 18.0577 9.23529 17.9338 9.24899 17.8C9.46599 15.814 10.616 14.3 12.001 14.3C13.386 14.3 14.542 15.826 14.755 17.816C14.769 17.945 14.8301 18.0643 14.9266 18.151C15.0231 18.2377 15.1482 18.2858 15.278 18.286C15.4036 18.2858 15.5252 18.2424 15.6225 18.1629C15.7198 18.0835 15.7867 17.973 15.812 17.85C15.9277 17.2718 15.9863 16.6837 15.987 16.094C15.9938 14.9961 15.7827 13.9078 15.366 12.892C15.8599 12.3612 16.2404 11.7351 16.484 11.0521C16.7277 10.3692 16.8294 9.64365 16.783 8.92001" fill="#E3E3E3"/>
<path d="M12 6.93101C11.7678 6.55928 11.4451 6.25255 11.0621 6.03952C10.6791 5.8265 10.2483 5.71416 9.80999 5.71301C8.37899 5.71301 7.21899 7.12701 7.21899 8.92001C7.17316 9.6436 7.27517 10.3689 7.51878 11.0518C7.7624 11.7347 8.14252 12.3608 8.63599 12.892C8.21959 13.9078 8.00886 14.9962 8.01599 16.094C8.01435 16.6902 8.074 17.285 8.19399 17.869C8.21808 17.987 8.2824 18.093 8.37597 18.1689C8.46953 18.2448 8.58653 18.2858 8.70699 18.285C8.84167 18.2862 8.97192 18.237 9.0722 18.1471C9.17247 18.0572 9.23553 17.933 9.24899 17.799C9.46599 15.814 10.616 14.301 12.001 14.301L12 6.93101Z" fill="white"/>
<path d="M16.782 8.92001C16.782 7.12701 15.622 5.71301 14.192 5.71301C13.7532 5.71288 13.3216 5.82466 12.9381 6.03778C12.5545 6.25091 12.2316 6.55834 12 6.93101C11.7678 6.55928 11.4451 6.25255 11.0621 6.03952C10.6791 5.8265 10.2483 5.71416 9.80999 5.71301C8.37899 5.71301 7.21899 7.12701 7.21899 8.92001C7.17316 9.6436 7.27517 10.3689 7.51878 11.0518C7.7624 11.7347 8.14252 12.3608 8.63599 12.892C8.21959 13.9078 8.00886 14.9962 8.01599 16.094C8.01435 16.6902 8.074 17.285 8.19399 17.869C8.21808 17.987 8.2824 18.093 8.37597 18.1689C8.46953 18.2448 8.58653 18.2858 8.70699 18.285C8.84151 18.2862 8.97164 18.2372 9.07189 18.1474C9.17214 18.0577 9.23529 17.9338 9.24899 17.8C9.46599 15.814 10.616 14.3 12.001 14.3C13.386 14.3 14.542 15.826 14.755 17.816C14.769 17.945 14.8301 18.0643 14.9266 18.151C15.0231 18.2377 15.1482 18.2858 15.278 18.286C15.4036 18.2858 15.5252 18.2424 15.6225 18.1629C15.7198 18.0835 15.7867 17.973 15.812 17.85C15.9277 17.2718 15.9863 16.6837 15.987 16.094C15.9938 14.9961 15.7827 13.9078 15.366 12.892C15.8599 12.3612 16.2404 11.7351 16.484 11.0521C16.7277 10.3692 16.8294 9.64365 16.783 8.92001" stroke="#191919" stroke-width="0.5" stroke-linecap="round" stroke-linejoin="round"/>
<defs>
<clipPath id="clip0_74_914">
<rect width="10" height="22" fill="white" transform="translate(12 1)"/>
</clipPath>
</defs>
</svg>
